<svg xmlns="http://www.w3.org/2000/svg" viewBox="0 0 260 200" fill="none" stroke="#BE982D" stroke-width="1.2" stroke-linecap="round" stroke-linejoin="round" opacity="0.22">
  <!-- Burj Khalifa Spire & Tiers -->
  <line x1="180" y1="12" x2="180" y2="40" />
  <line x1="178" y1="40" x2="182" y2="40" />
  <line x1="179" y1="40" x2="179" y2="70" />
  <line x1="176" y1="70" x2="184" y2="70" />
  <line x1="178" y1="70" x2="178" y2="105" />
  <line x1="174" y1="105" x2="186" y2="105" />
  <line x1="176" y1="105" x2="176" y2="145" />
  <line x1="171" y1="145" x2="189" y2="145" />
  <line x1="173" y1="145" x2="173" y2="195" />
  <line x1="187" y1="145" x2="187" y2="195" />
  <line x1="168" y1="170" x2="192" y2="170" />
  <line x1="165" y1="195" x2="195" y2="195" />

  <!-- Dubai Frame / Modern Towers -->
  <rect x="135" y="85" width="16" height="110" />
  <line x1="135" y1="105" x2="151" y2="105" />
  <line x1="135" y1="125" x2="151" y2="125" />
  <line x1="135" y1="145" x2="151" y2="145" />
  <line x1="135" y1="165" x2="151" y2="165" />
  <line x1="135" y1="185" x2="151" y2="185" />

  <rect x="115" y="115" width="14" height="80" />
  <line x1="115" y1="135" x2="129" y2="135" />
  <line x1="115" y1="155" x2="129" y2="155" />
  <line x1="115" y1="175" x2="129" y2="175" />

  <!-- Burj Al Arab Curved Sail Silhouette -->
  <path d="M205 195 L205 115 C205 115 216 125 226 145 C233 160 234 180 232 195 Z" />
  <line x1="205" y1="110" x2="205" y2="195" />
  <line x1="202" y1="145" x2="228" y2="145" />
  <line x1="203" y1="170" x2="231" y2="170" />

  <!-- Palm Tree Details -->
  <path d="M245 195 Q247 172 242 158" />
  <path d="M242 158 Q234 150 228 153" />
  <path d="M242 158 Q238 144 233 147" />
  <path d="M242 158 Q247 142 252 148" />
  <path d="M242 158 Q253 150 256 160" />

  <!-- Ground Line -->
  <line x1="90" y1="195" x2="260" y2="195" />
</svg>
